<svg width="82" height="24" viewBox="0 0 82 24" fill="none" xmlns="http://www.w3.org/2000/svg">
<path d="M9.824 6.848V18H8.368V12.944H2.688V18H1.232V6.848H2.688V11.744H8.368V6.848H9.824ZM16.1341 18.144C15.3128 18.144 14.5661 17.9573 13.8941 17.584C13.2328 17.2107 12.7101 16.6827 12.3261 16C11.9528 15.3067 11.7661 14.5067 11.7661 13.6C11.7661 12.704 11.9581 11.9147 12.3421 11.232C12.7368 10.5387 13.2701 10.0107 13.9421 9.648C14.6141 9.27467 15.3661 9.088 16.1981 9.088C17.0301 9.088 17.7821 9.27467 18.4541 9.648C19.1261 10.0107 19.6541 10.5333 20.0381 11.216C20.4328 11.8987 20.6301 12.6933 20.6301 13.6C20.6301 14.5067 20.4275 15.3067 20.0221 16C19.6275 16.6827 19.0888 17.2107 18.4061 17.584C17.7235 17.9573 16.9661 18.144 16.1341 18.144ZM16.1341 16.864C16.6568 16.864 17.1475 16.7413 17.6061 16.496C18.0648 16.2507 18.4328 15.8827 18.7101 15.392C18.9981 14.9013 19.1421 14.304 19.1421 13.6C19.1421 12.896 19.0035 12.2987 18.7261 11.808C18.4488 11.3173 18.0861 10.9547 17.6381 10.72C17.1901 10.4747 16.7048 10.352 16.1821 10.352C15.6488 10.352 15.1581 10.4747 14.7101 10.72C14.2728 10.9547 13.9208 11.3173 13.6541 11.808C13.3875 12.2987 13.2541 12.896 13.2541 13.6C13.2541 14.3147 13.3821 14.9173 13.6381 15.408C13.9048 15.8987 14.2568 16.2667 14.6941 16.512C15.1315 16.7467 15.6115 16.864 16.1341 16.864ZM33.0885 9.072C33.7712 9.072 34.3792 9.216 34.9125 9.504C35.4458 9.78133 35.8672 10.2027 36.1765 10.768C36.4858 11.3333 36.6405 12.0213 36.6405 12.832V18H35.2005V13.04C35.2005 12.1653 34.9818 11.4987 34.5445 11.04C34.1178 10.5707 33.5365 10.336 32.8005 10.336C32.0432 10.336 31.4405 10.5813 30.9925 11.072C30.5445 11.552 30.3205 12.2507 30.3205 13.168V18H28.8805V13.04C28.8805 12.1653 28.6618 11.4987 28.2245 11.04C27.7978 10.5707 27.2165 10.336 26.4805 10.336C25.7232 10.336 25.1205 10.5813 24.6725 11.072C24.2245 11.552 24.0005 12.2507 24.0005 13.168V18H22.5445V9.232H24.0005V10.496C24.2885 10.0373 24.6725 9.68533 25.1525 9.44C25.6432 9.19467 26.1818 9.072 26.7685 9.072C27.5045 9.072 28.1552 9.23733 28.7205 9.568C29.2858 9.89867 29.7072 10.384 29.9845 11.024C30.2298 10.4053 30.6352 9.92533 31.2005 9.584C31.7658 9.24267 32.3952 9.072 33.0885 9.072ZM47.0289 13.28C47.0289 13.5573 47.0129 13.8507 46.9809 14.16H39.9729C40.0262 15.024 40.3195 15.7013 40.8529 16.192C41.3969 16.672 42.0529 16.912 42.8209 16.912C43.4502 16.912 43.9729 16.768 44.3889 16.48C44.8155 16.1813 45.1142 15.7867 45.2849 15.296H46.8529C46.6182 16.1387 46.1489 16.8267 45.4449 17.36C44.7409 17.8827 43.8662 18.144 42.8209 18.144C41.9889 18.144 41.2422 17.9573 40.5809 17.584C39.9302 17.2107 39.4182 16.6827 39.0449 16C38.6715 15.3067 38.4849 14.5067 38.4849 13.6C38.4849 12.6933 38.6662 11.8987 39.0289 11.216C39.3915 10.5333 39.8982 10.0107 40.5489 9.648C41.2102 9.27467 41.9675 9.088 42.8209 9.088C43.6529 9.088 44.3889 9.26933 45.0289 9.632C45.6689 9.99467 46.1595 10.496 46.5009 11.136C46.8529 11.7653 47.0289 12.48 47.0289 13.28ZM45.5249 12.976C45.5249 12.4213 45.4022 11.9467 45.1569 11.552C44.9115 11.1467 44.5755 10.8427 44.1489 10.64C43.7329 10.4267 43.2689 10.32 42.7569 10.32C42.0209 10.32 41.3915 10.5547 40.8689 11.024C40.3569 11.4933 40.0635 12.144 39.9889 12.976H45.5249Z" fill="#9F9F9F"/>
<path d="M68 17L73 12L68 7L69 5L76 12L69 19L68 17Z" fill="black"/>
</svg>
