<svg width="125" height="11" viewBox="0 0 125 11" fill="none" xmlns="http://www.w3.org/2000/svg">
<path d="M6.799 1.628H2.236V4.592C2.43533 4.31467 2.73 4.08933 3.12 3.916C3.51 3.734 3.93033 3.643 4.381 3.643C5.10033 3.643 5.68533 3.79467 6.136 4.098C6.58667 4.39267 6.90733 4.77833 7.098 5.255C7.29733 5.723 7.397 6.22133 7.397 6.75C7.397 7.374 7.28 7.933 7.046 8.427C6.812 8.921 6.45233 9.311 5.967 9.597C5.49033 9.883 4.89667 10.026 4.186 10.026C3.276 10.026 2.53933 9.792 1.976 9.324C1.41267 8.856 1.07033 8.232 0.949 7.452H2.106C2.21867 7.946 2.457 8.33167 2.821 8.609C3.185 8.88633 3.64433 9.025 4.199 9.025C4.88367 9.025 5.39933 8.82133 5.746 8.414C6.09267 7.998 6.266 7.452 6.266 6.776C6.266 6.1 6.09267 5.58 5.746 5.216C5.39933 4.84333 4.888 4.657 4.212 4.657C3.75267 4.657 3.34967 4.76967 3.003 4.995C2.665 5.21167 2.418 5.51067 2.262 5.892H1.144V0.588H6.799V1.628ZM12.1879 5.463C12.1879 4.579 12.3872 3.786 12.7859 3.084C13.1846 2.37333 13.7262 1.81867 14.4109 1.42C15.1042 1.02133 15.8712 0.822 16.7119 0.822C17.6999 0.822 18.5622 1.06033 19.2989 1.537C20.0356 2.01367 20.5729 2.68967 20.9109 3.565H19.4939C19.2426 3.019 18.8786 2.59867 18.4019 2.304C17.9339 2.00933 17.3706 1.862 16.7119 1.862C16.0792 1.862 15.5116 2.00933 15.0089 2.304C14.5062 2.59867 14.1119 3.019 13.8259 3.565C13.5399 4.10233 13.3969 4.735 13.3969 5.463C13.3969 6.18233 13.5399 6.815 13.8259 7.361C14.1119 7.89833 14.5062 8.31433 15.0089 8.609C15.5116 8.90367 16.0792 9.051 16.7119 9.051C17.3706 9.051 17.9339 8.908 18.4019 8.622C18.8786 8.32733 19.2426 7.907 19.4939 7.361H20.9109C20.5729 8.22767 20.0356 8.89933 19.2989 9.376C18.5622 9.844 17.6999 10.078 16.7119 10.078C15.8712 10.078 15.1042 9.883 14.4109 9.493C13.7262 9.09433 13.1846 8.544 12.7859 7.842C12.3872 7.14 12.1879 6.347 12.1879 5.463ZM28.9899 2.876V10H27.8069V8.947C27.5816 9.311 27.2652 9.597 26.8579 9.805C26.4592 10.0043 26.0172 10.104 25.5319 10.104C24.9772 10.104 24.4789 9.99133 24.0369 9.766C23.5949 9.532 23.2439 9.18533 22.9839 8.726C22.7326 8.26667 22.6069 7.70767 22.6069 7.049V2.876H23.7769V6.893C23.7769 7.595 23.9546 8.13667 24.3099 8.518C24.6652 8.89067 25.1506 9.077 25.7659 9.077C26.3986 9.077 26.8969 8.882 27.2609 8.492C27.6249 8.102 27.8069 7.53433 27.8069 6.789V2.876H28.9899ZM33.5093 10.117C32.9633 10.117 32.4737 10.026 32.0403 9.844C31.607 9.65333 31.2647 9.39333 31.0133 9.064C30.762 8.726 30.6233 8.34033 30.5973 7.907H31.8193C31.854 8.26233 32.0187 8.55267 32.3133 8.778C32.6167 9.00333 33.011 9.116 33.4963 9.116C33.947 9.116 34.3023 9.01633 34.5623 8.817C34.8223 8.61767 34.9523 8.36633 34.9523 8.063C34.9523 7.751 34.8137 7.52133 34.5363 7.374C34.259 7.218 33.83 7.06633 33.2493 6.919C32.7207 6.78033 32.2873 6.64167 31.9493 6.503C31.62 6.35567 31.334 6.14333 31.0913 5.866C30.8573 5.58 30.7403 5.20733 30.7403 4.748C30.7403 4.384 30.8487 4.05033 31.0653 3.747C31.282 3.44367 31.5897 3.20533 31.9883 3.032C32.387 2.85 32.842 2.759 33.3533 2.759C34.142 2.759 34.779 2.95833 35.2643 3.357C35.7497 3.75567 36.0097 4.30167 36.0443 4.995H34.8613C34.8353 4.62233 34.6837 4.32333 34.4063 4.098C34.1377 3.87267 33.7737 3.76 33.3143 3.76C32.8897 3.76 32.5517 3.851 32.3003 4.033C32.049 4.215 31.9233 4.45333 31.9233 4.748C31.9233 4.982 31.997 5.177 32.1443 5.333C32.3003 5.48033 32.491 5.60167 32.7163 5.697C32.9503 5.78367 33.271 5.88333 33.6783 5.996C34.1897 6.13467 34.6057 6.27333 34.9263 6.412C35.247 6.542 35.52 6.74133 35.7453 7.01C35.9793 7.27867 36.1007 7.62967 36.1093 8.063C36.1093 8.453 36.001 8.804 35.7843 9.116C35.5677 9.428 35.26 9.675 34.8613 9.857C34.4713 10.0303 34.0207 10.117 33.5093 10.117ZM39.2223 3.851V8.05C39.2223 8.39667 39.296 8.64367 39.4433 8.791C39.5907 8.92967 39.8463 8.999 40.2103 8.999H41.0813V10H40.0153C39.3567 10 38.8627 9.84833 38.5333 9.545C38.204 9.24167 38.0393 8.74333 38.0393 8.05V3.851H37.1163V2.876H38.0393V1.082H39.2223V2.876H41.0813V3.851H39.2223ZM45.6217 10.117C44.9543 10.117 44.3477 9.96533 43.8017 9.662C43.2643 9.35867 42.8397 8.92967 42.5277 8.375C42.2243 7.81167 42.0727 7.16167 42.0727 6.425C42.0727 5.697 42.2287 5.05567 42.5407 4.501C42.8613 3.93767 43.2947 3.50867 43.8407 3.214C44.3867 2.91067 44.9977 2.759 45.6737 2.759C46.3497 2.759 46.9607 2.91067 47.5067 3.214C48.0527 3.50867 48.4817 3.93333 48.7937 4.488C49.1143 5.04267 49.2747 5.68833 49.2747 6.425C49.2747 7.16167 49.11 7.81167 48.7807 8.375C48.46 8.92967 48.0223 9.35867 47.4677 9.662C46.913 9.96533 46.2977 10.117 45.6217 10.117ZM45.6217 9.077C46.0463 9.077 46.445 8.97733 46.8177 8.778C47.1903 8.57867 47.4893 8.27967 47.7147 7.881C47.9487 7.48233 48.0657 6.997 48.0657 6.425C48.0657 5.853 47.953 5.36767 47.7277 4.969C47.5023 4.57033 47.2077 4.27567 46.8437 4.085C46.4797 3.88567 46.0853 3.786 45.6607 3.786C45.2273 3.786 44.8287 3.88567 44.4647 4.085C44.1093 4.27567 43.8233 4.57033 43.6067 4.969C43.39 5.36767 43.2817 5.853 43.2817 6.425C43.2817 7.00567 43.3857 7.49533 43.5937 7.894C43.8103 8.29267 44.0963 8.59167 44.4517 8.791C44.807 8.98167 45.197 9.077 45.6217 9.077ZM59.3971 2.746C59.9518 2.746 60.4458 2.863 60.8791 3.097C61.3124 3.32233 61.6548 3.66467 61.9061 4.124C62.1574 4.58333 62.2831 5.14233 62.2831 5.801V10H61.1131V5.97C61.1131 5.25933 60.9354 4.71767 60.5801 4.345C60.2334 3.96367 59.7611 3.773 59.1631 3.773C58.5478 3.773 58.0581 3.97233 57.6941 4.371C57.3301 4.761 57.1481 5.32867 57.1481 6.074V10H55.9781V5.97C55.9781 5.25933 55.8004 4.71767 55.4451 4.345C55.0984 3.96367 54.6261 3.773 54.0281 3.773C53.4128 3.773 52.9231 3.97233 52.5591 4.371C52.1951 4.761 52.0131 5.32867 52.0131 6.074V10H50.8301V2.876H52.0131V3.903C52.2471 3.53033 52.5591 3.24433 52.9491 3.045C53.3478 2.84567 53.7854 2.746 54.2621 2.746C54.8601 2.746 55.3888 2.88033 55.8481 3.149C56.3074 3.41767 56.6498 3.812 56.8751 4.332C57.0744 3.82933 57.4038 3.43933 57.8631 3.162C58.3224 2.88467 58.8338 2.746 59.3971 2.746ZM70.7237 6.165C70.7237 6.39033 70.7107 6.62867 70.6847 6.88H64.9907C65.034 7.582 65.2723 8.13233 65.7057 8.531C66.1477 8.921 66.6807 9.116 67.3047 9.116C67.816 9.116 68.2407 8.999 68.5787 8.765C68.9253 8.52233 69.168 8.20167 69.3067 7.803H70.5807C70.39 8.48767 70.0087 9.04667 69.4367 9.48C68.8647 9.90467 68.154 10.117 67.3047 10.117C66.6287 10.117 66.022 9.96533 65.4847 9.662C64.956 9.35867 64.54 8.92967 64.2367 8.375C63.9333 7.81167 63.7817 7.16167 63.7817 6.425C63.7817 5.68833 63.929 5.04267 64.2237 4.488C64.5183 3.93333 64.93 3.50867 65.4587 3.214C65.996 2.91067 66.6113 2.759 67.3047 2.759C67.9807 2.759 68.5787 2.90633 69.0987 3.201C69.6187 3.49567 70.0173 3.903 70.2947 4.423C70.5807 4.93433 70.7237 5.515 70.7237 6.165ZM69.5017 5.918C69.5017 5.46733 69.402 5.08167 69.2027 4.761C69.0033 4.43167 68.7303 4.18467 68.3837 4.02C68.0457 3.84667 67.6687 3.76 67.2527 3.76C66.6547 3.76 66.1433 3.95067 65.7187 4.332C65.3027 4.71333 65.0643 5.242 65.0037 5.918H69.5017ZM73.4682 4.033C73.6762 3.62567 73.9708 3.30933 74.3522 3.084C74.7422 2.85867 75.2145 2.746 75.7692 2.746V3.968H75.4572C74.1312 3.968 73.4682 4.68733 73.4682 6.126V10H72.2852V2.876H73.4682V4.033ZM85.3716 10L83.2136 6.295H81.7836V10H80.6006V0.939H83.5256C84.2103 0.939 84.7866 1.056 85.2546 1.29C85.7313 1.524 86.0866 1.84033 86.3206 2.239C86.5546 2.63767 86.6716 3.09267 86.6716 3.604C86.6716 4.228 86.4896 4.77833 86.1256 5.255C85.7703 5.73167 85.2329 6.048 84.5136 6.204L86.7886 10H85.3716ZM81.7836 5.346H83.5256C84.1669 5.346 84.6479 5.19 84.9686 4.878C85.2893 4.55733 85.4496 4.13267 85.4496 3.604C85.4496 3.06667 85.2893 2.65067 84.9686 2.356C84.6566 2.06133 84.1756 1.914 83.5256 1.914H81.7836V5.346ZM95.0098 6.165C95.0098 6.39033 94.9968 6.62867 94.9708 6.88H89.2768C89.3201 7.582 89.5585 8.13233 89.9918 8.531C90.4338 8.921 90.9668 9.116 91.5908 9.116C92.1021 9.116 92.5268 8.999 92.8648 8.765C93.2115 8.52233 93.4541 8.20167 93.5928 7.803H94.8668C94.6761 8.48767 94.2948 9.04667 93.7228 9.48C93.1508 9.90467 92.4401 10.117 91.5908 10.117C90.9148 10.117 90.3081 9.96533 89.7708 9.662C89.2421 9.35867 88.8261 8.92967 88.5228 8.375C88.2195 7.81167 88.0678 7.16167 88.0678 6.425C88.0678 5.68833 88.2151 5.04267 88.5098 4.488C88.8045 3.93333 89.2161 3.50867 89.7448 3.214C90.2821 2.91067 90.8975 2.759 91.5908 2.759C92.2668 2.759 92.8648 2.90633 93.3848 3.201C93.9048 3.49567 94.3035 3.903 94.5808 4.423C94.8668 4.93433 95.0098 5.515 95.0098 6.165ZM93.7878 5.918C93.7878 5.46733 93.6881 5.08167 93.4888 4.761C93.2895 4.43167 93.0165 4.18467 92.6698 4.02C92.3318 3.84667 91.9548 3.76 91.5388 3.76C90.9408 3.76 90.4295 3.95067 90.0048 4.332C89.5888 4.71333 89.3505 5.242 89.2898 5.918H93.7878ZM99.2233 8.908L101.433 2.876H102.694L99.8993 10H98.5213L95.7263 2.876H97.0003L99.2233 8.908ZM104.469 1.719C104.244 1.719 104.053 1.641 103.897 1.485C103.741 1.329 103.663 1.13833 103.663 0.912999C103.663 0.687666 103.741 0.497 103.897 0.341C104.053 0.185 104.244 0.107 104.469 0.107C104.686 0.107 104.868 0.185 105.015 0.341C105.171 0.497 105.249 0.687666 105.249 0.912999C105.249 1.13833 105.171 1.329 105.015 1.485C104.868 1.641 104.686 1.719 104.469 1.719ZM105.041 2.876V10H103.858V2.876H105.041ZM113.558 6.165C113.558 6.39033 113.545 6.62867 113.519 6.88H107.825C107.868 7.582 108.106 8.13233 108.54 8.531C108.982 8.921 109.515 9.116 110.139 9.116C110.65 9.116 111.075 8.999 111.413 8.765C111.759 8.52233 112.002 8.20167 112.141 7.803H113.415C113.224 8.48767 112.843 9.04667 112.271 9.48C111.699 9.90467 110.988 10.117 110.139 10.117C109.463 10.117 108.856 9.96533 108.319 9.662C107.79 9.35867 107.374 8.92967 107.071 8.375C106.767 7.81167 106.616 7.16167 106.616 6.425C106.616 5.68833 106.763 5.04267 107.058 4.488C107.352 3.93333 107.764 3.50867 108.293 3.214C108.83 2.91067 109.445 2.759 110.139 2.759C110.815 2.759 111.413 2.90633 111.933 3.201C112.453 3.49567 112.851 3.903 113.129 4.423C113.415 4.93433 113.558 5.515 113.558 6.165ZM112.336 5.918C112.336 5.46733 112.236 5.08167 112.037 4.761C111.837 4.43167 111.564 4.18467 111.218 4.02C110.88 3.84667 110.503 3.76 110.087 3.76C109.489 3.76 108.977 3.95067 108.553 4.332C108.137 4.71333 107.898 5.242 107.838 5.918H112.336ZM124.609 2.876L122.386 10H121.164L119.448 4.345L117.732 10H116.51L114.274 2.876H115.483L117.121 8.856L118.889 2.876H120.098L121.827 8.869L123.439 2.876H124.609Z" fill="#9F9F9F"/>
</svg>
