<svg width="252" height="24" viewBox="0 0 252 24" fill="none" xmlns="http://www.w3.org/2000/svg">
<path d="M12 14.6667C11.4747 14.6667 11 14.8734 10.644 15.2047L5.94 12.4667C5.97333 12.3134 6 12.16 6 12C6 11.84 5.97333 11.6867 5.94 11.5334L10.64 8.79337C11 9.12671 11.4733 9.33337 12 9.33337C13.1067 9.33337 14 8.44004 14 7.33337C14 6.22671 13.1067 5.33337 12 5.33337C10.8933 5.33337 10 6.22671 10 7.33337C10 7.49337 10.0267 7.64671 10.06 7.80004L5.36 10.54C5 10.2067 4.52667 10 4 10C2.89333 10 2 10.8934 2 12C2 13.1067 2.89333 14 4 14C4.52667 14 5 13.7934 5.36 13.46L10.0587 16.2054C10.0211 16.3563 10.0014 16.5112 10 16.6667C10 17.0623 10.1173 17.4489 10.3371 17.7778C10.5568 18.1067 10.8692 18.3631 11.2346 18.5145C11.6001 18.6658 12.0022 18.7054 12.3902 18.6283C12.7781 18.5511 13.1345 18.3606 13.4142 18.0809C13.6939 17.8012 13.8844 17.4448 13.9616 17.0569C14.0387 16.6689 13.9991 16.2668 13.8478 15.9013C13.6964 15.5359 13.44 15.2235 13.1111 15.0038C12.7822 14.784 12.3956 14.6667 12 14.6667Z" fill="white"/>
<path d="M22.96 18.112C22.1813 18.112 21.4773 17.9787 20.848 17.712C20.2293 17.4453 19.7387 17.0613 19.376 16.56C19.0133 16.0587 18.8267 15.4667 18.816 14.784H21.216C21.248 15.2427 21.408 15.6053 21.696 15.872C21.9947 16.1387 22.4 16.272 22.912 16.272C23.4347 16.272 23.8453 16.1493 24.144 15.904C24.4427 15.648 24.592 15.3173 24.592 14.912C24.592 14.5813 24.4907 14.3093 24.288 14.096C24.0853 13.8827 23.8293 13.7173 23.52 13.6C23.2213 13.472 22.8053 13.3333 22.272 13.184C21.5467 12.9707 20.9547 12.7627 20.496 12.56C20.048 12.3467 19.6587 12.032 19.328 11.616C19.008 11.1893 18.848 10.624 18.848 9.92C18.848 9.25867 19.0133 8.68267 19.344 8.192C19.6747 7.70133 20.1387 7.328 20.736 7.072C21.3333 6.80533 22.016 6.672 22.784 6.672C23.936 6.672 24.8693 6.95467 25.584 7.52C26.3093 8.07467 26.7093 8.85333 26.784 9.856H24.32C24.2987 9.472 24.1333 9.15733 23.824 8.912C23.5253 8.656 23.1253 8.528 22.624 8.528C22.1867 8.528 21.8347 8.64 21.568 8.864C21.312 9.088 21.184 9.41333 21.184 9.84C21.184 10.1387 21.28 10.3893 21.472 10.592C21.6747 10.784 21.92 10.944 22.208 11.072C22.5067 11.1893 22.9227 11.328 23.456 11.488C24.1813 11.7013 24.7733 11.9147 25.232 12.128C25.6907 12.3413 26.0853 12.6613 26.416 13.088C26.7467 13.5147 26.912 14.0747 26.912 14.768C26.912 15.3653 26.7573 15.92 26.448 16.432C26.1387 16.944 25.6853 17.3547 25.088 17.664C24.4907 17.9627 23.7813 18.112 22.96 18.112ZM33.846 9.008C34.518 9.008 35.1153 9.15733 35.638 9.456C36.1607 9.744 36.566 10.176 36.854 10.752C37.1527 11.3173 37.302 12 37.302 12.8V18H35.062V13.104C35.062 12.4 34.886 11.8613 34.534 11.488C34.182 11.104 33.702 10.912 33.094 10.912C32.4753 10.912 31.9847 11.104 31.622 11.488C31.27 11.8613 31.094 12.4 31.094 13.104V18H28.854V6.16H31.094V10.24C31.382 9.856 31.766 9.55733 32.246 9.344C32.726 9.12 33.2593 9.008 33.846 9.008ZM38.8561 13.536C38.8561 12.64 39.0321 11.8453 39.3841 11.152C39.7468 10.4587 40.2321 9.92533 40.8401 9.552C41.4588 9.17867 42.1468 8.992 42.9041 8.992C43.5655 8.992 44.1415 9.12533 44.6321 9.392C45.1335 9.65867 45.5335 9.99467 45.8321 10.4V9.136H48.0881V18H45.8321V16.704C45.5441 17.12 45.1441 17.4667 44.6321 17.744C44.1308 18.0107 43.5495 18.144 42.8881 18.144C42.1415 18.144 41.4588 17.952 40.8401 17.568C40.2321 17.184 39.7468 16.6453 39.3841 15.952C39.0321 15.248 38.8561 14.4427 38.8561 13.536ZM45.8321 13.568C45.8321 13.024 45.7255 12.56 45.5121 12.176C45.2988 11.7813 45.0108 11.4827 44.6481 11.28C44.2855 11.0667 43.8961 10.96 43.4801 10.96C43.0641 10.96 42.6801 11.0613 42.3281 11.264C41.9761 11.4667 41.6881 11.7653 41.4641 12.16C41.2508 12.544 41.1441 13.0027 41.1441 13.536C41.1441 14.0693 41.2508 14.5387 41.4641 14.944C41.6881 15.3387 41.9761 15.6427 42.3281 15.856C42.6908 16.0693 43.0748 16.176 43.4801 16.176C43.8961 16.176 44.2855 16.0747 44.6481 15.872C45.0108 15.6587 45.2988 15.36 45.5121 14.976C45.7255 14.5813 45.8321 14.112 45.8321 13.568ZM52.5159 10.512C52.8039 10.0427 53.1772 9.67467 53.6359 9.408C54.1052 9.14133 54.6385 9.008 55.2359 9.008V11.36H54.6439C53.9399 11.36 53.4065 11.5253 53.0439 11.856C52.6919 12.1867 52.5159 12.7627 52.5159 13.584V18H50.2759V9.136H52.5159V10.512ZM64.9846 13.376C64.9846 13.696 64.9633 13.984 64.9206 14.24H58.4406C58.494 14.88 58.718 15.3813 59.1126 15.744C59.5073 16.1067 59.9926 16.288 60.5686 16.288C61.4006 16.288 61.9926 15.9307 62.3446 15.216H64.7606C64.5046 16.0693 64.014 16.7733 63.2886 17.328C62.5633 17.872 61.6726 18.144 60.6166 18.144C59.7633 18.144 58.9953 17.9573 58.3126 17.584C57.6406 17.2 57.1126 16.6613 56.7286 15.968C56.3553 15.2747 56.1686 14.4747 56.1686 13.568C56.1686 12.6507 56.3553 11.8453 56.7286 11.152C57.102 10.4587 57.6246 9.92533 58.2966 9.552C58.9686 9.17867 59.742 8.992 60.6166 8.992C61.4593 8.992 62.2113 9.17333 62.8726 9.536C63.5446 9.89867 64.062 10.416 64.4246 11.088C64.798 11.7493 64.9846 12.512 64.9846 13.376ZM62.6646 12.736C62.654 12.16 62.446 11.7013 62.0406 11.36C61.6353 11.008 61.1393 10.832 60.5526 10.832C59.998 10.832 59.5286 11.0027 59.1446 11.344C58.7713 11.6747 58.542 12.1387 58.4566 12.736H62.6646Z" fill="white"/>
<path d="M96.08 11L97.08 12L100.52 8.55L97 5L96 6L97.8 7.8H88V9.2H97.82L96.08 11ZM91.86 13L90.86 12L87.42 15.5L90.91 19L91.91 18L90.1 16.2H100V14.8H90.1L91.86 13Z" fill="white"/>
<path d="M104.56 12.4C104.56 11.3013 104.805 10.32 105.296 9.456C105.797 8.58133 106.475 7.904 107.328 7.424C108.192 6.93333 109.157 6.688 110.224 6.688C111.472 6.688 112.565 7.008 113.504 7.648C114.443 8.288 115.099 9.17333 115.472 10.304H112.896C112.64 9.77067 112.277 9.37067 111.808 9.104C111.349 8.83733 110.816 8.704 110.208 8.704C109.557 8.704 108.976 8.85867 108.464 9.168C107.963 9.46667 107.568 9.89333 107.28 10.448C107.003 11.0027 106.864 11.6533 106.864 12.4C106.864 13.136 107.003 13.7867 107.28 14.352C107.568 14.9067 107.963 15.3387 108.464 15.648C108.976 15.9467 109.557 16.096 110.208 16.096C110.816 16.096 111.349 15.9627 111.808 15.696C112.277 15.4187 112.64 15.0133 112.896 14.48H115.472C115.099 15.6213 114.443 16.512 113.504 17.152C112.576 17.7813 111.483 18.096 110.224 18.096C109.157 18.096 108.192 17.856 107.328 17.376C106.475 16.8853 105.797 16.208 105.296 15.344C104.805 14.48 104.56 13.4987 104.56 12.4ZM121.321 18.144C120.468 18.144 119.7 17.9573 119.017 17.584C118.335 17.2 117.796 16.6613 117.401 15.968C117.017 15.2747 116.825 14.4747 116.825 13.568C116.825 12.6613 117.023 11.8613 117.417 11.168C117.823 10.4747 118.372 9.94133 119.065 9.568C119.759 9.184 120.532 8.992 121.385 8.992C122.239 8.992 123.012 9.184 123.705 9.568C124.399 9.94133 124.943 10.4747 125.337 11.168C125.743 11.8613 125.945 12.6613 125.945 13.568C125.945 14.4747 125.737 15.2747 125.321 15.968C124.916 16.6613 124.361 17.2 123.657 17.584C122.964 17.9573 122.185 18.144 121.321 18.144ZM121.321 16.192C121.727 16.192 122.105 16.096 122.457 15.904C122.82 15.7013 123.108 15.4027 123.321 15.008C123.535 14.6133 123.641 14.1333 123.641 13.568C123.641 12.7253 123.417 12.08 122.969 11.632C122.532 11.1733 121.993 10.944 121.353 10.944C120.713 10.944 120.175 11.1733 119.737 11.632C119.311 12.08 119.097 12.7253 119.097 13.568C119.097 14.4107 119.305 15.0613 119.721 15.52C120.148 15.968 120.681 16.192 121.321 16.192ZM138.596 9.008C139.684 9.008 140.559 9.344 141.22 10.016C141.892 10.6773 142.228 11.6053 142.228 12.8V18H139.988V13.104C139.988 12.4107 139.812 11.8827 139.46 11.52C139.108 11.1467 138.628 10.96 138.02 10.96C137.412 10.96 136.927 11.1467 136.564 11.52C136.212 11.8827 136.036 12.4107 136.036 13.104V18H133.796V13.104C133.796 12.4107 133.62 11.8827 133.268 11.52C132.916 11.1467 132.436 10.96 131.828 10.96C131.21 10.96 130.719 11.1467 130.356 11.52C130.004 11.8827 129.828 12.4107 129.828 13.104V18H127.588V9.136H129.828V10.208C130.116 9.83467 130.484 9.54133 130.932 9.328C131.391 9.11467 131.892 9.008 132.436 9.008C133.13 9.008 133.748 9.15733 134.292 9.456C134.836 9.744 135.258 10.16 135.556 10.704C135.844 10.192 136.26 9.78133 136.804 9.472C137.359 9.16267 137.956 9.008 138.596 9.008ZM146.594 10.416C146.882 10.0107 147.277 9.67467 147.778 9.408C148.29 9.13067 148.871 8.992 149.522 8.992C150.279 8.992 150.962 9.17867 151.57 9.552C152.189 9.92533 152.674 10.4587 153.026 11.152C153.389 11.8347 153.57 12.6293 153.57 13.536C153.57 14.4427 153.389 15.248 153.026 15.952C152.674 16.6453 152.189 17.184 151.57 17.568C150.962 17.952 150.279 18.144 149.522 18.144C148.871 18.144 148.295 18.0107 147.794 17.744C147.303 17.4773 146.903 17.1413 146.594 16.736V22.224H144.354V9.136H146.594V10.416ZM151.282 13.536C151.282 13.0027 151.17 12.544 150.946 12.16C150.733 11.7653 150.445 11.4667 150.082 11.264C149.73 11.0613 149.346 10.96 148.93 10.96C148.525 10.96 148.141 11.0667 147.778 11.28C147.426 11.4827 147.138 11.7813 146.914 12.176C146.701 12.5707 146.594 13.0347 146.594 13.568C146.594 14.1013 146.701 14.5653 146.914 14.96C147.138 15.3547 147.426 15.6587 147.778 15.872C148.141 16.0747 148.525 16.176 148.93 16.176C149.346 16.176 149.73 16.0693 150.082 15.856C150.445 15.6427 150.733 15.3387 150.946 14.944C151.17 14.5493 151.282 14.08 151.282 13.536ZM154.622 13.536C154.622 12.64 154.798 11.8453 155.15 11.152C155.512 10.4587 155.998 9.92533 156.606 9.552C157.224 9.17867 157.912 8.992 158.67 8.992C159.331 8.992 159.907 9.12533 160.398 9.392C160.899 9.65867 161.299 9.99467 161.598 10.4V9.136H163.854V18H161.598V16.704C161.31 17.12 160.91 17.4667 160.398 17.744C159.896 18.0107 159.315 18.144 158.654 18.144C157.907 18.144 157.224 17.952 156.606 17.568C155.998 17.184 155.512 16.6453 155.15 15.952C154.798 15.248 154.622 14.4427 154.622 13.536ZM161.598 13.568C161.598 13.024 161.491 12.56 161.278 12.176C161.064 11.7813 160.776 11.4827 160.414 11.28C160.051 11.0667 159.662 10.96 159.246 10.96C158.83 10.96 158.446 11.0613 158.094 11.264C157.742 11.4667 157.454 11.7653 157.23 12.16C157.016 12.544 156.91 13.0027 156.91 13.536C156.91 14.0693 157.016 14.5387 157.23 14.944C157.454 15.3387 157.742 15.6427 158.094 15.856C158.456 16.0693 158.84 16.176 159.246 16.176C159.662 16.176 160.051 16.0747 160.414 15.872C160.776 15.6587 161.064 15.36 161.278 14.976C161.491 14.5813 161.598 14.112 161.598 13.568ZM168.282 10.512C168.57 10.0427 168.943 9.67467 169.402 9.408C169.871 9.14133 170.404 9.008 171.002 9.008V11.36H170.41C169.706 11.36 169.172 11.5253 168.81 11.856C168.458 12.1867 168.282 12.7627 168.282 13.584V18H166.042V9.136H168.282V10.512ZM180.75 13.376C180.75 13.696 180.729 13.984 180.686 14.24H174.206C174.26 14.88 174.484 15.3813 174.878 15.744C175.273 16.1067 175.758 16.288 176.334 16.288C177.166 16.288 177.758 15.9307 178.11 15.216H180.526C180.27 16.0693 179.78 16.7733 179.054 17.328C178.329 17.872 177.438 18.144 176.382 18.144C175.529 18.144 174.761 17.9573 174.078 17.584C173.406 17.2 172.878 16.6613 172.494 15.968C172.121 15.2747 171.934 14.4747 171.934 13.568C171.934 12.6507 172.121 11.8453 172.494 11.152C172.868 10.4587 173.39 9.92533 174.062 9.552C174.734 9.17867 175.508 8.992 176.382 8.992C177.225 8.992 177.977 9.17333 178.638 9.536C179.31 9.89867 179.828 10.416 180.19 11.088C180.564 11.7493 180.75 12.512 180.75 13.376ZM178.43 12.736C178.42 12.16 178.212 11.7013 177.806 11.36C177.401 11.008 176.905 10.832 176.318 10.832C175.764 10.832 175.294 11.0027 174.91 11.344C174.537 11.6747 174.308 12.1387 174.222 12.736H178.43Z" fill="white"/>
<path d="M210 18.0361C196.667 10.6667 206 2.66669 210 7.72539C214 2.66669 223.333 10.6667 210 18.0361Z" stroke="white" stroke-width="1.8"/>
<path d="M223.344 16.224H227.024V18H221.104V6.832H223.344V16.224ZM229.584 8.08C229.189 8.08 228.858 7.95733 228.592 7.712C228.336 7.456 228.208 7.14133 228.208 6.768C228.208 6.39467 228.336 6.08533 228.592 5.84C228.858 5.584 229.189 5.456 229.584 5.456C229.978 5.456 230.304 5.584 230.56 5.84C230.826 6.08533 230.96 6.39467 230.96 6.768C230.96 7.14133 230.826 7.456 230.56 7.712C230.304 7.95733 229.978 8.08 229.584 8.08ZM230.688 9.136V18H228.448V9.136H230.688ZM238.149 18L235.141 14.224V18H232.901V6.16H235.141V12.896L238.117 9.136H241.029L237.125 13.584L241.061 18H238.149ZM250.485 13.376C250.485 13.696 250.463 13.984 250.421 14.24H243.941C243.994 14.88 244.218 15.3813 244.613 15.744C245.007 16.1067 245.493 16.288 246.069 16.288C246.901 16.288 247.493 15.9307 247.845 15.216H250.261C250.005 16.0693 249.514 16.7733 248.789 17.328C248.063 17.872 247.173 18.144 246.117 18.144C245.263 18.144 244.495 17.9573 243.813 17.584C243.141 17.2 242.613 16.6613 242.229 15.968C241.855 15.2747 241.669 14.4747 241.669 13.568C241.669 12.6507 241.855 11.8453 242.229 11.152C242.602 10.4587 243.125 9.92533 243.797 9.552C244.469 9.17867 245.242 8.992 246.117 8.992C246.959 8.992 247.711 9.17333 248.373 9.536C249.045 9.89867 249.562 10.416 249.925 11.088C250.298 11.7493 250.485 12.512 250.485 13.376ZM248.165 12.736C248.154 12.16 247.946 11.7013 247.541 11.36C247.135 11.008 246.639 10.832 246.053 10.832C245.498 10.832 245.029 11.0027 244.645 11.344C244.271 11.6747 244.042 12.1387 243.957 12.736H248.165Z" fill="white"/>
</svg>
