<svg width="167" height="24" viewBox="0 0 167 24" fill="none" xmlns="http://www.w3.org/2000/svg">
<path d="M29.592 12.416C29.592 11.328 29.8427 10.352 30.344 9.488C30.856 8.624 31.544 7.952 32.408 7.472C33.2827 6.98133 34.2373 6.736 35.272 6.736C36.456 6.736 37.5067 7.02933 38.424 7.616C39.352 8.192 40.024 9.01333 40.44 10.08H38.248C37.96 9.49333 37.56 9.056 37.048 8.768C36.536 8.48 35.944 8.336 35.272 8.336C34.536 8.336 33.88 8.50133 33.304 8.832C32.728 9.16267 32.2747 9.63733 31.944 10.256C31.624 10.8747 31.464 11.5947 31.464 12.416C31.464 13.2373 31.624 13.9573 31.944 14.576C32.2747 15.1947 32.728 15.6747 33.304 16.016C33.88 16.3467 34.536 16.512 35.272 16.512C35.944 16.512 36.536 16.368 37.048 16.08C37.56 15.792 37.96 15.3547 38.248 14.768H40.44C40.024 15.8347 39.352 16.656 38.424 17.232C37.5067 17.808 36.456 18.096 35.272 18.096C34.2267 18.096 33.272 17.856 32.408 17.376C31.544 16.8853 30.856 16.208 30.344 15.344C29.8427 14.48 29.592 13.504 29.592 12.416ZM41.967 13.552C41.967 12.6667 42.1483 11.8827 42.511 11.2C42.8843 10.5173 43.3857 9.98933 44.015 9.616C44.655 9.232 45.359 9.04 46.127 9.04C46.8203 9.04 47.423 9.17867 47.935 9.456C48.4577 9.72267 48.8737 10.0587 49.183 10.464V9.184H51.023V18H49.183V16.688C48.8737 17.104 48.4523 17.4507 47.919 17.728C47.3857 18.0053 46.7777 18.144 46.095 18.144C45.3377 18.144 44.6443 17.952 44.015 17.568C43.3857 17.1733 42.8843 16.6293 42.511 15.936C42.1483 15.232 41.967 14.4373 41.967 13.552ZM49.183 13.584C49.183 12.976 49.055 12.448 48.799 12C48.5537 11.552 48.2283 11.2107 47.823 10.976C47.4177 10.7413 46.9803 10.624 46.511 10.624C46.0417 10.624 45.6043 10.7413 45.199 10.976C44.7937 11.2 44.463 11.536 44.207 11.984C43.9617 12.4213 43.839 12.944 43.839 13.552C43.839 14.16 43.9617 14.6933 44.207 15.152C44.463 15.6107 44.7937 15.9627 45.199 16.208C45.615 16.4427 46.0523 16.56 46.511 16.56C46.9803 16.56 47.4177 16.4427 47.823 16.208C48.2283 15.9733 48.5537 15.632 48.799 15.184C49.055 14.7253 49.183 14.192 49.183 13.584ZM56.6188 18.144C55.9254 18.144 55.3014 18.0213 54.7468 17.776C54.2028 17.52 53.7708 17.1787 53.4508 16.752C53.1308 16.3147 52.9601 15.8293 52.9388 15.296H54.8268C54.8588 15.6693 55.0348 15.984 55.3548 16.24C55.6854 16.4853 56.0961 16.608 56.5868 16.608C57.0988 16.608 57.4934 16.512 57.7708 16.32C58.0588 16.1173 58.2028 15.8613 58.2028 15.552C58.2028 15.2213 58.0428 14.976 57.7228 14.816C57.4134 14.656 56.9174 14.48 56.2348 14.288C55.5734 14.1067 55.0348 13.9307 54.6188 13.76C54.2028 13.5893 53.8401 13.328 53.5308 12.976C53.2321 12.624 53.0828 12.16 53.0828 11.584C53.0828 11.1147 53.2214 10.688 53.4988 10.304C53.7761 9.90933 54.1708 9.6 54.6828 9.376C55.2054 9.152 55.8028 9.04 56.4748 9.04C57.4774 9.04 58.2828 9.296 58.8908 9.808C59.5094 10.3093 59.8401 10.9973 59.8828 11.872H58.0588C58.0268 11.4773 57.8668 11.1627 57.5788 10.928C57.2908 10.6933 56.9014 10.576 56.4108 10.576C55.9308 10.576 55.5628 10.6667 55.3068 10.848C55.0508 11.0293 54.9228 11.2693 54.9228 11.568C54.9228 11.8027 55.0081 12 55.1788 12.16C55.3494 12.32 55.5574 12.448 55.8028 12.544C56.0481 12.6293 56.4108 12.7413 56.8908 12.88C57.5308 13.0507 58.0534 13.2267 58.4588 13.408C58.8748 13.5787 59.2321 13.8347 59.5308 14.176C59.8294 14.5173 59.9841 14.9707 59.9948 15.536C59.9948 16.0373 59.8561 16.4853 59.5788 16.88C59.3014 17.2747 58.9068 17.584 58.3948 17.808C57.8934 18.032 57.3014 18.144 56.6188 18.144ZM66.5256 9.04C67.1976 9.04 67.795 9.184 68.3176 9.472C68.851 9.76 69.267 10.1867 69.5656 10.752C69.875 11.3173 70.0296 12 70.0296 12.8V18H68.2216V13.072C68.2216 12.2827 68.0243 11.68 67.6296 11.264C67.235 10.8373 66.6963 10.624 66.0136 10.624C65.331 10.624 64.787 10.8373 64.3816 11.264C63.987 11.68 63.7896 12.2827 63.7896 13.072V18H61.9656V6.16H63.7896V10.208C64.099 9.83467 64.4883 9.54667 64.9576 9.344C65.4376 9.14133 65.9603 9.04 66.5256 9.04ZM81.5845 18.112C80.5498 18.112 79.5952 17.872 78.7205 17.392C77.8565 16.9013 77.1685 16.224 76.6565 15.36C76.1552 14.4853 75.9045 13.504 75.9045 12.416C75.9045 11.328 76.1552 10.352 76.6565 9.488C77.1685 8.624 77.8565 7.952 78.7205 7.472C79.5952 6.98133 80.5498 6.736 81.5845 6.736C82.6298 6.736 83.5845 6.98133 84.4485 7.472C85.3232 7.952 86.0112 8.624 86.5125 9.488C87.0138 10.352 87.2645 11.328 87.2645 12.416C87.2645 13.504 87.0138 14.4853 86.5125 15.36C86.0112 16.224 85.3232 16.9013 84.4485 17.392C83.5845 17.872 82.6298 18.112 81.5845 18.112ZM81.5845 16.528C82.3205 16.528 82.9765 16.3627 83.5525 16.032C84.1285 15.6907 84.5765 15.2107 84.8965 14.592C85.2272 13.9627 85.3925 13.2373 85.3925 12.416C85.3925 11.5947 85.2272 10.8747 84.8965 10.256C84.5765 9.63733 84.1285 9.16267 83.5525 8.832C82.9765 8.50133 82.3205 8.336 81.5845 8.336C80.8485 8.336 80.1925 8.50133 79.6165 8.832C79.0405 9.16267 78.5872 9.63733 78.2565 10.256C77.9365 10.8747 77.7765 11.5947 77.7765 12.416C77.7765 13.2373 77.9365 13.9627 78.2565 14.592C78.5872 15.2107 79.0405 15.6907 79.6165 16.032C80.1925 16.3627 80.8485 16.528 81.5845 16.528ZM93.5074 9.04C94.2007 9.04 94.8194 9.184 95.3634 9.472C95.918 9.76 96.35 10.1867 96.6594 10.752C96.9687 11.3173 97.1234 12 97.1234 12.8V18H95.3154V13.072C95.3154 12.2827 95.118 11.68 94.7234 11.264C94.3287 10.8373 93.79 10.624 93.1074 10.624C92.4247 10.624 91.8807 10.8373 91.4754 11.264C91.0807 11.68 90.8834 12.2827 90.8834 13.072V18H89.0594V9.184H90.8834V10.192C91.182 9.82933 91.5607 9.54667 92.0194 9.344C92.4887 9.14133 92.9847 9.04 93.5074 9.04ZM107.238 6.88C108.422 6.88 109.457 7.10933 110.342 7.568C111.238 8.016 111.926 8.66667 112.406 9.52C112.897 10.3627 113.142 11.3493 113.142 12.48C113.142 13.6107 112.897 14.592 112.406 15.424C111.926 16.256 111.238 16.896 110.342 17.344C109.457 17.7813 108.422 18 107.238 18H103.606V6.88H107.238ZM107.238 16.512C108.54 16.512 109.537 16.16 110.23 15.456C110.924 14.752 111.27 13.76 111.27 12.48C111.27 11.1893 110.924 10.1813 110.23 9.456C109.537 8.73067 108.54 8.368 107.238 8.368H105.43V16.512H107.238ZM123.03 13.376C123.03 13.7067 123.009 14.0053 122.966 14.272H116.23C116.283 14.976 116.545 15.5413 117.014 15.968C117.483 16.3947 118.059 16.608 118.742 16.608C119.723 16.608 120.417 16.1973 120.822 15.376H122.79C122.523 16.1867 122.038 16.8533 121.334 17.376C120.641 17.888 119.777 18.144 118.742 18.144C117.899 18.144 117.142 17.9573 116.47 17.584C115.809 17.2 115.286 16.6667 114.902 15.984C114.529 15.2907 114.342 14.4907 114.342 13.584C114.342 12.6773 114.523 11.8827 114.886 11.2C115.259 10.5067 115.777 9.97333 116.438 9.6C117.11 9.22667 117.878 9.04 118.742 9.04C119.574 9.04 120.315 9.22133 120.966 9.584C121.617 9.94667 122.123 10.4587 122.486 11.12C122.849 11.7707 123.03 12.5227 123.03 13.376ZM121.126 12.8C121.115 12.128 120.875 11.5893 120.406 11.184C119.937 10.7787 119.355 10.576 118.662 10.576C118.033 10.576 117.494 10.7787 117.046 11.184C116.598 11.5787 116.331 12.1173 116.246 12.8H121.126ZM126.649 6.16V18H124.825V6.16H126.649ZM129.972 8.016C129.641 8.016 129.364 7.904 129.14 7.68C128.916 7.456 128.804 7.17867 128.804 6.848C128.804 6.51733 128.916 6.24 129.14 6.016C129.364 5.792 129.641 5.68 129.972 5.68C130.292 5.68 130.564 5.792 130.788 6.016C131.012 6.24 131.124 6.51733 131.124 6.848C131.124 7.17867 131.012 7.456 130.788 7.68C130.564 7.904 130.292 8.016 129.972 8.016ZM130.868 9.184V18H129.044V9.184H130.868ZM136.671 16.368L139.167 9.184H141.102L137.743 18H135.567L132.223 9.184H134.174L136.671 16.368ZM150.561 13.376C150.561 13.7067 150.54 14.0053 150.497 14.272H143.761C143.815 14.976 144.076 15.5413 144.545 15.968C145.015 16.3947 145.591 16.608 146.273 16.608C147.255 16.608 147.948 16.1973 148.353 15.376H150.321C150.055 16.1867 149.569 16.8533 148.865 17.376C148.172 17.888 147.308 18.144 146.273 18.144C145.431 18.144 144.673 17.9573 144.001 17.584C143.34 17.2 142.817 16.6667 142.433 15.984C142.06 15.2907 141.873 14.4907 141.873 13.584C141.873 12.6773 142.055 11.8827 142.417 11.2C142.791 10.5067 143.308 9.97333 143.969 9.6C144.641 9.22667 145.409 9.04 146.273 9.04C147.105 9.04 147.847 9.22133 148.497 9.584C149.148 9.94667 149.655 10.4587 150.017 11.12C150.38 11.7707 150.561 12.5227 150.561 13.376ZM148.657 12.8C148.647 12.128 148.407 11.5893 147.937 11.184C147.468 10.7787 146.887 10.576 146.193 10.576C145.564 10.576 145.025 10.7787 144.577 11.184C144.129 11.5787 143.863 12.1173 143.777 12.8H148.657ZM154.18 10.464C154.447 10.016 154.799 9.66933 155.236 9.424C155.684 9.168 156.212 9.04 156.82 9.04V10.928H156.356C155.642 10.928 155.098 11.1093 154.724 11.472C154.362 11.8347 154.18 12.464 154.18 13.36V18H152.356V9.184H154.18V10.464ZM166.433 9.184L161.025 22.144H159.137L160.929 17.856L157.457 9.184H159.489L161.969 15.904L164.545 9.184H166.433Z" fill="#9F9F9F"/>
<circle cx="7" cy="12" r="6.5" stroke="#9F9F9F"/>
</svg>
