<svg width="191" height="24" viewBox="0 0 191 24" fill="none" xmlns="http://www.w3.org/2000/svg">
<path d="M33.832 6.88C35.016 6.88 36.0507 7.10933 36.936 7.568C37.832 8.016 38.52 8.66667 39 9.52C39.4907 10.3627 39.736 11.3493 39.736 12.48C39.736 13.6107 39.4907 14.592 39 15.424C38.52 16.256 37.832 16.896 36.936 17.344C36.0507 17.7813 35.016 18 33.832 18H30.2V6.88H33.832ZM33.832 16.512C35.1333 16.512 36.1307 16.16 36.824 15.456C37.5173 14.752 37.864 13.76 37.864 12.48C37.864 11.1893 37.5173 10.1813 36.824 9.456C36.1307 8.73067 35.1333 8.368 33.832 8.368H32.024V16.512H33.832ZM42.4718 8.016C42.1411 8.016 41.8638 7.904 41.6398 7.68C41.4158 7.456 41.3038 7.17867 41.3038 6.848C41.3038 6.51733 41.4158 6.24 41.6398 6.016C41.8638 5.792 42.1411 5.68 42.4718 5.68C42.7918 5.68 43.0638 5.792 43.2878 6.016C43.5118 6.24 43.6238 6.51733 43.6238 6.848C43.6238 7.17867 43.5118 7.456 43.2878 7.68C43.0638 7.904 42.7918 8.016 42.4718 8.016ZM43.3678 9.184V18H41.5438V9.184H43.3678ZM47.5865 10.464C47.8532 10.016 48.2052 9.66933 48.6425 9.424C49.0905 9.168 49.6185 9.04 50.2265 9.04V10.928H49.7625C49.0478 10.928 48.5038 11.1093 48.1305 11.472C47.7678 11.8347 47.5865 12.464 47.5865 13.36V18H45.7625V9.184H47.5865V10.464ZM59.9831 13.376C59.9831 13.7067 59.9618 14.0053 59.9191 14.272H53.1831C53.2365 14.976 53.4978 15.5413 53.9671 15.968C54.4365 16.3947 55.0125 16.608 55.6951 16.608C56.6765 16.608 57.3698 16.1973 57.7751 15.376H59.7431C59.4765 16.1867 58.9911 16.8533 58.2871 17.376C57.5938 17.888 56.7298 18.144 55.6951 18.144C54.8525 18.144 54.0951 17.9573 53.4231 17.584C52.7618 17.2 52.2391 16.6667 51.8551 15.984C51.4818 15.2907 51.2951 14.4907 51.2951 13.584C51.2951 12.6773 51.4765 11.8827 51.8391 11.2C52.2125 10.5067 52.7298 9.97333 53.3911 9.6C54.0631 9.22667 54.8311 9.04 55.6951 9.04C56.5271 9.04 57.2685 9.22133 57.9191 9.584C58.5698 9.94667 59.0765 10.4587 59.4391 11.12C59.8018 11.7707 59.9831 12.5227 59.9831 13.376ZM58.0791 12.8C58.0685 12.128 57.8285 11.5893 57.3591 11.184C56.8898 10.7787 56.3085 10.576 55.6151 10.576C54.9858 10.576 54.4471 10.7787 53.9991 11.184C53.5511 11.5787 53.2845 12.1173 53.1991 12.8H58.0791ZM61.1701 13.584C61.1701 12.6773 61.3515 11.8827 61.7141 11.2C62.0875 10.5067 62.5995 9.97333 63.2501 9.6C63.9008 9.22667 64.6475 9.04 65.4901 9.04C66.5568 9.04 67.4368 9.296 68.1301 9.808C68.8341 10.3093 69.3088 11.0293 69.5541 11.968H67.5861C67.4261 11.5307 67.1701 11.1893 66.8181 10.944C66.4661 10.6987 66.0235 10.576 65.4901 10.576C64.7435 10.576 64.1461 10.8427 63.6981 11.376C63.2608 11.8987 63.0421 12.6347 63.0421 13.584C63.0421 14.5333 63.2608 15.2747 63.6981 15.808C64.1461 16.3413 64.7435 16.608 65.4901 16.608C66.5461 16.608 67.2448 16.144 67.5861 15.216H69.5541C69.2981 16.112 68.8181 16.8267 68.1141 17.36C67.4101 17.8827 66.5355 18.144 65.4901 18.144C64.6475 18.144 63.9008 17.9573 63.2501 17.584C62.5995 17.2 62.0875 16.6667 61.7141 15.984C61.3515 15.2907 61.1701 14.4907 61.1701 13.584ZM73.4999 10.672V15.552C73.4999 15.8827 73.5745 16.1227 73.7239 16.272C73.8839 16.4107 74.1505 16.48 74.5239 16.48H75.6439V18H74.2039C73.3825 18 72.7532 17.808 72.3159 17.424C71.8785 17.04 71.6599 16.416 71.6599 15.552V10.672H70.6199V9.184H71.6599V6.992H73.4999V9.184H75.6439V10.672H73.4999ZM87.4333 12.288C88.0306 12.3947 88.5373 12.7093 88.9533 13.232C89.3693 13.7547 89.5773 14.3467 89.5773 15.008C89.5773 15.5733 89.4279 16.0853 89.1293 16.544C88.8413 16.992 88.4199 17.3493 87.8653 17.616C87.3106 17.872 86.6653 18 85.9293 18H81.4813V6.88H85.7213C86.4786 6.88 87.1293 7.008 87.6733 7.264C88.2173 7.52 88.6279 7.86667 88.9053 8.304C89.1826 8.73067 89.3212 9.21067 89.3212 9.744C89.3212 10.384 89.1506 10.9173 88.8093 11.344C88.4679 11.7707 88.0093 12.0853 87.4333 12.288ZM83.3053 11.552H85.5613C86.1586 11.552 86.6226 11.4187 86.9533 11.152C87.2946 10.8747 87.4653 10.48 87.4653 9.968C87.4653 9.46667 87.2946 9.07733 86.9533 8.8C86.6226 8.512 86.1586 8.368 85.5613 8.368H83.3053V11.552ZM85.7693 16.512C86.3879 16.512 86.8733 16.3627 87.2253 16.064C87.5773 15.7653 87.7533 15.3493 87.7533 14.816C87.7533 14.272 87.5666 13.84 87.1933 13.52C86.8199 13.2 86.3239 13.04 85.7053 13.04H83.3053V16.512H85.7693ZM90.9514 13.552C90.9514 12.6667 91.1327 11.8827 91.4954 11.2C91.8687 10.5173 92.37 9.98933 92.9994 9.616C93.6394 9.232 94.3434 9.04 95.1114 9.04C95.8047 9.04 96.4074 9.17867 96.9194 9.456C97.442 9.72267 97.858 10.0587 98.1674 10.464V9.184H100.007V18H98.1674V16.688C97.858 17.104 97.4367 17.4507 96.9034 17.728C96.37 18.0053 95.762 18.144 95.0794 18.144C94.322 18.144 93.6287 17.952 92.9994 17.568C92.37 17.1733 91.8687 16.6293 91.4954 15.936C91.1327 15.232 90.9514 14.4373 90.9514 13.552ZM98.1674 13.584C98.1674 12.976 98.0394 12.448 97.7834 12C97.538 11.552 97.2127 11.2107 96.8074 10.976C96.402 10.7413 95.9647 10.624 95.4954 10.624C95.026 10.624 94.5887 10.7413 94.1834 10.976C93.778 11.2 93.4474 11.536 93.1914 11.984C92.946 12.4213 92.8234 12.944 92.8234 13.552C92.8234 14.16 92.946 14.6933 93.1914 15.152C93.4474 15.6107 93.778 15.9627 94.1834 16.208C94.5994 16.4427 95.0367 16.56 95.4954 16.56C95.9647 16.56 96.402 16.4427 96.8074 16.208C97.2127 15.9733 97.538 15.632 97.7834 15.184C98.0394 14.7253 98.1674 14.192 98.1674 13.584ZM106.851 9.04C107.544 9.04 108.163 9.184 108.707 9.472C109.262 9.76 109.694 10.1867 110.003 10.752C110.312 11.3173 110.467 12 110.467 12.8V18H108.659V13.072C108.659 12.2827 108.462 11.68 108.067 11.264C107.672 10.8373 107.134 10.624 106.451 10.624C105.768 10.624 105.224 10.8373 104.819 11.264C104.424 11.68 104.227 12.2827 104.227 13.072V18H102.403V9.184H104.227V10.192C104.526 9.82933 104.904 9.54667 105.363 9.344C105.832 9.14133 106.328 9.04 106.851 9.04ZM116.282 13.6L120.346 18H117.882L114.618 14.208V18H112.794V6.16H114.618V13.04L117.818 9.184H120.346L116.282 13.6ZM132.993 6.88V8.368H130.033V18H128.209V8.368H125.233V6.88H132.993ZM136.665 10.464C136.931 10.016 137.283 9.66933 137.721 9.424C138.169 9.168 138.697 9.04 139.305 9.04V10.928H138.841C138.126 10.928 137.582 11.1093 137.209 11.472C136.846 11.8347 136.665 12.464 136.665 13.36V18H134.841V9.184H136.665V10.464ZM140.373 13.552C140.373 12.6667 140.555 11.8827 140.917 11.2C141.291 10.5173 141.792 9.98933 142.421 9.616C143.061 9.232 143.765 9.04 144.533 9.04C145.227 9.04 145.829 9.17867 146.341 9.456C146.864 9.72267 147.28 10.0587 147.589 10.464V9.184H149.429V18H147.589V16.688C147.28 17.104 146.859 17.4507 146.325 17.728C145.792 18.0053 145.184 18.144 144.501 18.144C143.744 18.144 143.051 17.952 142.421 17.568C141.792 17.1733 141.291 16.6293 140.917 15.936C140.555 15.232 140.373 14.4373 140.373 13.552ZM147.589 13.584C147.589 12.976 147.461 12.448 147.205 12C146.96 11.552 146.635 11.2107 146.229 10.976C145.824 10.7413 145.387 10.624 144.917 10.624C144.448 10.624 144.011 10.7413 143.605 10.976C143.2 11.2 142.869 11.536 142.613 11.984C142.368 12.4213 142.245 12.944 142.245 13.552C142.245 14.16 142.368 14.6933 142.613 15.152C142.869 15.6107 143.2 15.9627 143.605 16.208C144.021 16.4427 144.459 16.56 144.917 16.56C145.387 16.56 145.824 16.4427 146.229 16.208C146.635 15.9733 146.96 15.632 147.205 15.184C147.461 14.7253 147.589 14.192 147.589 13.584ZM156.273 9.04C156.966 9.04 157.585 9.184 158.129 9.472C158.684 9.76 159.116 10.1867 159.425 10.752C159.734 11.3173 159.889 12 159.889 12.8V18H158.081V13.072C158.081 12.2827 157.884 11.68 157.489 11.264C157.094 10.8373 156.556 10.624 155.873 10.624C155.19 10.624 154.646 10.8373 154.241 11.264C153.846 11.68 153.649 12.2827 153.649 13.072V18H151.825V9.184H153.649V10.192C153.948 9.82933 154.326 9.54667 154.785 9.344C155.254 9.14133 155.75 9.04 156.273 9.04ZM165.416 18.144C164.722 18.144 164.098 18.0213 163.544 17.776C163 17.52 162.568 17.1787 162.248 16.752C161.928 16.3147 161.757 15.8293 161.736 15.296H163.624C163.656 15.6693 163.832 15.984 164.152 16.24C164.482 16.4853 164.893 16.608 165.384 16.608C165.896 16.608 166.29 16.512 166.568 16.32C166.856 16.1173 167 15.8613 167 15.552C167 15.2213 166.84 14.976 166.52 14.816C166.21 14.656 165.714 14.48 165.032 14.288C164.37 14.1067 163.832 13.9307 163.416 13.76C163 13.5893 162.637 13.328 162.328 12.976C162.029 12.624 161.88 12.16 161.88 11.584C161.88 11.1147 162.018 10.688 162.296 10.304C162.573 9.90933 162.968 9.6 163.48 9.376C164.002 9.152 164.6 9.04 165.272 9.04C166.274 9.04 167.08 9.296 167.688 9.808C168.306 10.3093 168.637 10.9973 168.68 11.872H166.856C166.824 11.4773 166.664 11.1627 166.376 10.928C166.088 10.6933 165.698 10.576 165.208 10.576C164.728 10.576 164.36 10.6667 164.104 10.848C163.848 11.0293 163.72 11.2693 163.72 11.568C163.72 11.8027 163.805 12 163.976 12.16C164.146 12.32 164.354 12.448 164.6 12.544C164.845 12.6293 165.208 12.7413 165.688 12.88C166.328 13.0507 166.85 13.2267 167.256 13.408C167.672 13.5787 168.029 13.8347 168.328 14.176C168.626 14.5173 168.781 14.9707 168.792 15.536C168.792 16.0373 168.653 16.4853 168.376 16.88C168.098 17.2747 167.704 17.584 167.192 17.808C166.69 18.032 166.098 18.144 165.416 18.144ZM174.459 10.672H172.827V18H170.987V10.672H169.947V9.184H170.987V8.56C170.987 7.54667 171.253 6.81067 171.787 6.352C172.331 5.88267 173.179 5.648 174.331 5.648V7.168C173.776 7.168 173.387 7.27467 173.163 7.488C172.939 7.69067 172.827 8.048 172.827 8.56V9.184H174.459V10.672ZM184.155 13.376C184.155 13.7067 184.134 14.0053 184.091 14.272H177.355C177.408 14.976 177.67 15.5413 178.139 15.968C178.608 16.3947 179.184 16.608 179.867 16.608C180.848 16.608 181.542 16.1973 181.947 15.376H183.915C183.648 16.1867 183.163 16.8533 182.459 17.376C181.766 17.888 180.902 18.144 179.867 18.144C179.024 18.144 178.267 17.9573 177.595 17.584C176.934 17.2 176.411 16.6667 176.027 15.984C175.654 15.2907 175.467 14.4907 175.467 13.584C175.467 12.6773 175.648 11.8827 176.011 11.2C176.384 10.5067 176.902 9.97333 177.563 9.6C178.235 9.22667 179.003 9.04 179.867 9.04C180.699 9.04 181.44 9.22133 182.091 9.584C182.742 9.94667 183.248 10.4587 183.611 11.12C183.974 11.7707 184.155 12.5227 184.155 13.376ZM182.251 12.8C182.24 12.128 182 11.5893 181.531 11.184C181.062 10.7787 180.48 10.576 179.787 10.576C179.158 10.576 178.619 10.7787 178.171 11.184C177.723 11.5787 177.456 12.1173 177.371 12.8H182.251ZM187.774 10.464C188.041 10.016 188.393 9.66933 188.83 9.424C189.278 9.168 189.806 9.04 190.414 9.04V10.928H189.95C189.235 10.928 188.691 11.1093 188.318 11.472C187.955 11.8347 187.774 12.464 187.774 13.36V18H185.95V9.184H187.774V10.464Z" fill="#9F9F9F"/>
<circle cx="7" cy="12" r="6.5" stroke="#9F9F9F"/>
</svg>
