<svg width="82" height="24" viewBox="0 0 82 24" fill="none" xmlns="http://www.w3.org/2000/svg">
<path d="M4.768 18.112C4.032 18.112 3.37067 17.984 2.784 17.728C2.208 17.4613 1.75467 17.0987 1.424 16.64C1.09333 16.1707 0.922667 15.632 0.912 15.024H2.464C2.51733 15.5467 2.73067 15.9893 3.104 16.352C3.488 16.704 4.04267 16.88 4.768 16.88C5.46133 16.88 6.00533 16.7093 6.4 16.368C6.80533 16.016 7.008 15.568 7.008 15.024C7.008 14.5973 6.89067 14.2507 6.656 13.984C6.42133 13.7173 6.128 13.5147 5.776 13.376C5.424 13.2373 4.94933 13.088 4.352 12.928C3.616 12.736 3.024 12.544 2.576 12.352C2.13867 12.16 1.76 11.8613 1.44 11.456C1.13067 11.04 0.976 10.4853 0.976 9.792C0.976 9.184 1.13067 8.64533 1.44 8.176C1.74933 7.70667 2.18133 7.344 2.736 7.088C3.30133 6.832 3.94667 6.704 4.672 6.704C5.71733 6.704 6.57067 6.96533 7.232 7.488C7.904 8.01067 8.28267 8.704 8.368 9.568H6.768C6.71467 9.14133 6.49067 8.768 6.096 8.448C5.70133 8.11733 5.17867 7.952 4.528 7.952C3.92 7.952 3.424 8.112 3.04 8.432C2.656 8.74133 2.464 9.17867 2.464 9.744C2.464 10.1493 2.576 10.48 2.8 10.736C3.03467 10.992 3.31733 11.1893 3.648 11.328C3.98933 11.456 4.464 11.6053 5.072 11.776C5.808 11.9787 6.4 12.1813 6.848 12.384C7.296 12.576 7.68 12.88 8 13.296C8.32 13.7013 8.48 14.256 8.48 14.96C8.48 15.504 8.336 16.016 8.048 16.496C7.76 16.976 7.33333 17.3653 6.768 17.664C6.20267 17.9627 5.536 18.112 4.768 18.112ZM14.9746 9.072C15.636 9.072 16.2333 9.216 16.7666 9.504C17.3 9.78133 17.716 10.2027 18.0146 10.768C18.324 11.3333 18.4786 12.0213 18.4786 12.832V18H17.0386V13.04C17.0386 12.1653 16.82 11.4987 16.3826 11.04C15.9453 10.5707 15.348 10.336 14.5906 10.336C13.8226 10.336 13.2093 10.576 12.7506 11.056C12.3026 11.536 12.0786 12.2347 12.0786 13.152V18H10.6226V6.16H12.0786V10.48C12.3666 10.032 12.7613 9.68533 13.2626 9.44C13.7746 9.19467 14.3453 9.072 14.9746 9.072ZM24.681 18.144C23.8597 18.144 23.113 17.9573 22.441 17.584C21.7797 17.2107 21.257 16.6827 20.873 16C20.4997 15.3067 20.313 14.5067 20.313 13.6C20.313 12.704 20.505 11.9147 20.889 11.232C21.2837 10.5387 21.817 10.0107 22.489 9.648C23.161 9.27467 23.913 9.088 24.745 9.088C25.577 9.088 26.329 9.27467 27.001 9.648C27.673 10.0107 28.201 10.5333 28.585 11.216C28.9797 11.8987 29.177 12.6933 29.177 13.6C29.177 14.5067 28.9743 15.3067 28.569 16C28.1743 16.6827 27.6357 17.2107 26.953 17.584C26.2703 17.9573 25.513 18.144 24.681 18.144ZM24.681 16.864C25.2037 16.864 25.6943 16.7413 26.153 16.496C26.6117 16.2507 26.9797 15.8827 27.257 15.392C27.545 14.9013 27.689 14.304 27.689 13.6C27.689 12.896 27.5503 12.2987 27.273 11.808C26.9957 11.3173 26.633 10.9547 26.185 10.72C25.737 10.4747 25.2517 10.352 24.729 10.352C24.1957 10.352 23.705 10.4747 23.257 10.72C22.8197 10.9547 22.4677 11.3173 22.201 11.808C21.9343 12.2987 21.801 12.896 21.801 13.6C21.801 14.3147 21.929 14.9173 22.185 15.408C22.4517 15.8987 22.8037 16.2667 23.241 16.512C23.6783 16.7467 24.1583 16.864 24.681 16.864ZM32.5474 10.848C32.8354 10.3467 33.262 9.93067 33.8274 9.6C34.4034 9.25867 35.07 9.088 35.8274 9.088C36.606 9.088 37.31 9.27467 37.9394 9.648C38.5794 10.0213 39.0807 10.5493 39.4434 11.232C39.806 11.904 39.9874 12.688 39.9874 13.584C39.9874 14.4693 39.806 15.2587 39.4434 15.952C39.0807 16.6453 38.5794 17.184 37.9394 17.568C37.31 17.952 36.606 18.144 35.8274 18.144C35.0807 18.144 34.4194 17.9787 33.8434 17.648C33.278 17.3067 32.846 16.8853 32.5474 16.384V22.16H31.0914V9.232H32.5474V10.848ZM38.4994 13.584C38.4994 12.9227 38.366 12.3467 38.0994 11.856C37.8327 11.3653 37.47 10.992 37.0114 10.736C36.5634 10.48 36.0674 10.352 35.5234 10.352C34.99 10.352 34.494 10.4853 34.0354 10.752C33.5874 11.008 33.2247 11.3867 32.9474 11.888C32.6807 12.3787 32.5474 12.9493 32.5474 13.6C32.5474 14.2613 32.6807 14.8427 32.9474 15.344C33.2247 15.8347 33.5874 16.2133 34.0354 16.48C34.494 16.736 34.99 16.864 35.5234 16.864C36.0674 16.864 36.5634 16.736 37.0114 16.48C37.47 16.2133 37.8327 15.8347 38.0994 15.344C38.366 14.8427 38.4994 14.256 38.4994 13.584Z" fill="#9F9F9F"/>
<path d="M68 17L73 12L68 7L69 5L76 12L69 19L68 17Z" fill="black"/>
</svg>
