<svg width="123" height="63" viewBox="0 0 123 63" fill="none" xmlns="http://www.w3.org/2000/svg">
<path d="M4.172 15.098C3.528 15.098 2.94933 14.986 2.436 14.762C1.932 14.5287 1.53533 14.2113 1.246 13.81C0.956667 13.3993 0.807333 12.928 0.798 12.396H2.156C2.20267 12.8533 2.38933 13.2407 2.716 13.558C3.052 13.866 3.53733 14.02 4.172 14.02C4.77867 14.02 5.25467 13.8707 5.6 13.572C5.95467 13.264 6.132 12.872 6.132 12.396C6.132 12.0227 6.02933 11.7193 5.824 11.486C5.61867 11.2527 5.362 11.0753 5.054 10.954C4.746 10.8327 4.33067 10.702 3.808 10.562C3.164 10.394 2.646 10.226 2.254 10.058C1.87133 9.89 1.54 9.62867 1.26 9.274C0.989333 8.91 0.854 8.42467 0.854 7.818C0.854 7.286 0.989333 6.81467 1.26 6.404C1.53067 5.99333 1.90867 5.676 2.394 5.452C2.88867 5.228 3.45333 5.116 4.088 5.116C5.00267 5.116 5.74933 5.34467 6.328 5.802C6.916 6.25933 7.24733 6.866 7.322 7.622H5.922C5.87533 7.24867 5.67933 6.922 5.334 6.642C4.98867 6.35267 4.53133 6.208 3.962 6.208C3.43 6.208 2.996 6.348 2.66 6.628C2.324 6.89867 2.156 7.28133 2.156 7.776C2.156 8.13067 2.254 8.42 2.45 8.644C2.65533 8.868 2.90267 9.04067 3.192 9.162C3.49067 9.274 3.906 9.40467 4.438 9.554C5.082 9.73133 5.6 9.90867 5.992 10.086C6.384 10.254 6.72 10.52 7 10.884C7.28 11.2387 7.42 11.724 7.42 12.34C7.42 12.816 7.294 13.264 7.042 13.684C6.79 14.104 6.41667 14.4447 5.922 14.706C5.42733 14.9673 4.844 15.098 4.172 15.098ZM9.9528 6.082C9.71013 6.082 9.5048 5.998 9.3368 5.83C9.1688 5.662 9.0848 5.45667 9.0848 5.214C9.0848 4.97133 9.1688 4.766 9.3368 4.598C9.5048 4.43 9.71013 4.346 9.9528 4.346C10.1861 4.346 10.3821 4.43 10.5408 4.598C10.7088 4.766 10.7928 4.97133 10.7928 5.214C10.7928 5.45667 10.7088 5.662 10.5408 5.83C10.3821 5.998 10.1861 6.082 9.9528 6.082ZM10.5688 7.328V15H9.2948V7.328H10.5688ZM13.6921 13.95H17.4581V15H12.2361V13.95L15.9601 8.364H12.2641V7.328H17.4301V8.364L13.6921 13.95ZM26.1112 10.87C26.1112 11.1127 26.0972 11.3693 26.0692 11.64H19.9372C19.9839 12.396 20.2405 12.9887 20.7072 13.418C21.1832 13.838 21.7572 14.048 22.4292 14.048C22.9799 14.048 23.4372 13.922 23.8012 13.67C24.1745 13.4087 24.4359 13.0633 24.5852 12.634H25.9572C25.7519 13.3713 25.3412 13.9733 24.7252 14.44C24.1092 14.8973 23.3439 15.126 22.4292 15.126C21.7012 15.126 21.0479 14.9627 20.4692 14.636C19.8999 14.3093 19.4519 13.8473 19.1252 13.25C18.7985 12.6433 18.6352 11.9433 18.6352 11.15C18.6352 10.3567 18.7939 9.66133 19.1112 9.064C19.4285 8.46667 19.8719 8.00933 20.4412 7.692C21.0199 7.36533 21.6825 7.202 22.4292 7.202C23.1572 7.202 23.8012 7.36067 24.3612 7.678C24.9212 7.99533 25.3505 8.434 25.6492 8.994C25.9572 9.54467 26.1112 10.17 26.1112 10.87ZM24.7952 10.604C24.7952 10.1187 24.6879 9.70333 24.4732 9.358C24.2585 9.00333 23.9645 8.73733 23.5912 8.56C23.2272 8.37333 22.8212 8.28 22.3732 8.28C21.7292 8.28 21.1785 8.48533 20.7212 8.896C20.2732 9.30667 20.0165 9.876 19.9512 10.604H24.7952Z" fill="#9F9F9F"/>
<rect x="1" y="33" width="30" height="30" rx="5" fill="#B88E2F"/>
<path d="M15.184 52.038H18.356V53H14.001V43.939H15.184V52.038Z" fill="white"/>
<rect x="47" y="33" width="30" height="30" rx="5" fill="#F9F1E7"/>
<path d="M59.706 48.476L62.488 53H61.149L58.978 49.464L56.911 53H55.598L58.367 48.476L55.585 43.939H56.911L59.095 47.488L61.175 43.939H62.501L59.706 48.476ZM65.2582 52.038H68.4302V53H64.0752V43.939H65.2582V52.038Z" fill="black"/>
<rect x="93" y="33" width="30" height="30" rx="5" fill="#F9F1E7"/>
<path d="M104.706 48.476L107.488 53H106.149L103.978 49.464L101.911 53H100.598L103.367 48.476L100.585 43.939H101.911L104.095 47.488L106.175 43.939H107.501L104.706 48.476ZM111.948 53.091C111.35 53.091 110.813 52.987 110.336 52.779C109.868 52.5623 109.5 52.2677 109.231 51.895C108.963 51.5137 108.824 51.076 108.815 50.582H110.076C110.12 51.0067 110.293 51.3663 110.596 51.661C110.908 51.947 111.359 52.09 111.948 52.09C112.512 52.09 112.954 51.9513 113.274 51.674C113.604 51.388 113.768 51.024 113.768 50.582C113.768 50.2353 113.673 49.9537 113.482 49.737C113.292 49.5203 113.053 49.3557 112.767 49.243C112.481 49.1303 112.096 49.009 111.61 48.879C111.012 48.723 110.531 48.567 110.167 48.411C109.812 48.255 109.504 48.0123 109.244 47.683C108.993 47.345 108.867 46.8943 108.867 46.331C108.867 45.837 108.993 45.3993 109.244 45.018C109.496 44.6367 109.847 44.342 110.297 44.134C110.757 43.926 111.281 43.822 111.87 43.822C112.72 43.822 113.413 44.0343 113.95 44.459C114.496 44.8837 114.804 45.447 114.873 46.149H113.573C113.53 45.8023 113.348 45.499 113.027 45.239C112.707 44.9703 112.282 44.836 111.753 44.836C111.259 44.836 110.856 44.966 110.544 45.226C110.232 45.4773 110.076 45.8327 110.076 46.292C110.076 46.6213 110.167 46.89 110.349 47.098C110.54 47.306 110.77 47.4663 111.038 47.579C111.316 47.683 111.701 47.8043 112.195 47.943C112.793 48.1077 113.274 48.2723 113.638 48.437C114.002 48.593 114.314 48.84 114.574 49.178C114.834 49.5073 114.964 49.958 114.964 50.53C114.964 50.972 114.847 51.388 114.613 51.778C114.379 52.168 114.033 52.4843 113.573 52.727C113.114 52.9697 112.572 53.091 111.948 53.091Z" fill="black"/>
</svg>
